<svg xmlns="http://www.w3.org/2000/svg" viewBox="0 0 32 32">
  <!-- Book pages -->
  <path d="M6 24c0-1 .5-2 1.5-2.5C9 20.8 12 20 16 20c4 0 7 .8 8.5 1.5 1 .5 1.5 1.5 1.5 2.5" fill="none" stroke="#8B6914" stroke-width="1.5" stroke-linecap="round"/>
  <path d="M6 24V12c0-1 .5-2 1.5-2.5C9 8.8 12 8 16 8V20" fill="none" stroke="#8B6914" stroke-width="1.5" stroke-linecap="round"/>
  <path d="M26 24V12c0-1-.5-2-1.5-2.5C23 8.8 20 8 16 8V20" fill="none" stroke="#9D6B3A" stroke-width="1.5" stroke-linecap="round"/>
  <!-- Sun -->
  <circle cx="16" cy="10" r="5" fill="#D4A156"/>
  <circle cx="16" cy="10" r="3.5" fill="#E8B94A"/>
  <!-- Rays -->
  <line x1="16" y1="3" x2="16" y2="1.5" stroke="#D4A156" stroke-width="1.2" stroke-linecap="round"/>
  <line x1="20.5" y1="5.5" x2="21.5" y2="4.5" stroke="#D4A156" stroke-width="1.2" stroke-linecap="round"/>
  <line x1="11.5" y1="5.5" x2="10.5" y2="4.5" stroke="#D4A156" stroke-width="1.2" stroke-linecap="round"/>
  <line x1="22" y1="10" x2="23.5" y2="10" stroke="#D4A156" stroke-width="1.2" stroke-linecap="round"/>
  <line x1="10" y1="10" x2="8.5" y2="10" stroke="#D4A156" stroke-width="1.2" stroke-linecap="round"/>
  <!-- Sparkle -->
  <circle cx="20" cy="7" r="0.8" fill="#E8B94A"/>
</svg>
